<svg id="visual" viewBox="0 0 900 600" width="900" height="600" xmlns="http://www.w3.org/2000/svg" xmlns:xlink="http://www.w3.org/1999/xlink" version="1.1"><rect x="0" y="0" width="900" height="600" fill="#ffe5da"></rect><path d="M0 411L21.5 411.8C43 412.7 86 414.3 128.8 404.7C171.7 395 214.3 374 257.2 374C300 374 343 395 385.8 399.8C428.7 404.7 471.3 393.3 514.2 395.7C557 398 600 414 642.8 419.2C685.7 424.3 728.3 418.7 771.2 407.3C814 396 857 379 878.5 370.5L900 362L900 601L878.5 601C857 601 814 601 771.2 601C728.3 601 685.7 601 642.8 601C600 601 557 601 514.2 601C471.3 601 428.7 601 385.8 601C343 601 300 601 257.2 601C214.3 601 171.7 601 128.8 601C86 601 43 601 21.5 601L0 601Z" fill="#888277"></path><path d="M0 439L21.5 432.3C43 425.7 86 412.3 128.8 407.2C171.7 402 214.3 405 257.2 406.5C300 408 343 408 385.8 419.5C428.7 431 471.3 454 514.2 455.8C557 457.7 600 438.3 642.8 431.5C685.7 424.7 728.3 430.3 771.2 430.7C814 431 857 426 878.5 423.5L900 421L900 601L878.5 601C857 601 814 601 771.2 601C728.3 601 685.7 601 642.8 601C600 601 557 601 514.2 601C471.3 601 428.7 601 385.8 601C343 601 300 601 257.2 601C214.3 601 171.7 601 128.8 601C86 601 43 601 21.5 601L0 601Z" fill="#a5a097"></path><path d="M0 453L21.5 458.8C43 464.7 86 476.3 128.8 485.8C171.7 495.3 214.3 502.7 257.2 502.5C300 502.3 343 494.7 385.8 494C428.7 493.3 471.3 499.7 514.2 499.5C557 499.3 600 492.7 642.8 488C685.7 483.3 728.3 480.7 771.2 476C814 471.3 857 464.7 878.5 461.3L900 458L900 601L878.5 601C857 601 814 601 771.2 601C728.3 601 685.7 601 642.8 601C600 601 557 601 514.2 601C471.3 601 428.7 601 385.8 601C343 601 300 601 257.2 601C214.3 601 171.7 601 128.8 601C86 601 43 601 21.5 601L0 601Z" fill="#c2bfb9"></path><path d="M0 530L21.5 522.3C43 514.7 86 499.3 128.8 494.3C171.7 489.3 214.3 494.7 257.2 499.7C300 504.7 343 509.3 385.8 515.8C428.7 522.3 471.3 530.7 514.2 531.8C557 533 600 527 642.8 518C685.7 509 728.3 497 771.2 492.8C814 488.7 857 492.3 878.5 494.2L900 496L900 601L878.5 601C857 601 814 601 771.2 601C728.3 601 685.7 601 642.8 601C600 601 557 601 514.2 601C471.3 601 428.7 601 385.8 601C343 601 300 601 257.2 601C214.3 601 171.7 601 128.8 601C86 601 43 601 21.5 601L0 601Z" fill="#e0dfdb"></path><path d="M0 534L21.5 538C43 542 86 550 128.8 552.2C171.7 554.3 214.3 550.7 257.2 546.5C300 542.3 343 537.7 385.8 541.3C428.7 545 471.3 557 514.2 555.7C557 554.3 600 539.7 642.8 535C685.7 530.3 728.3 535.7 771.2 540C814 544.3 857 547.7 878.5 549.3L900 551L900 601L878.5 601C857 601 814 601 771.2 601C728.3 601 685.7 601 642.8 601C600 601 557 601 514.2 601C471.3 601 428.7 601 385.8 601C343 601 300 601 257.2 601C214.3 601 171.7 601 128.8 601C86 601 43 601 21.5 601L0 601Z" fill="#ffffff"></path></svg>